# Blender v2.77 (sub 0) OBJ File: 'robot.blend'
# www.blender.org
mtllib robot.mtl
o luleg
v 0.051569 0.217896 -0.115108
v 0.051569 0.421631 -0.115108
v 0.113627 0.217896 -0.115108
v 0.113627 0.421631 -0.115108
v 0.051569 0.217896 -0.003299
v 0.051569 0.421631 -0.003299
v 0.113627 0.217896 -0.003299
v 0.113627 0.421631 -0.003299
vt 0.4244 0.2222
vt 0.4244 0.1081
vt 0.5384 0.1081
vt 0.4244 0.2222
vt 0.4244 0.1081
vt 0.5384 0.1081
vt 0.4244 0.2222
vt 0.4244 0.1081
vt 0.5384 0.1081
vt 0.4244 0.2222
vt 0.4244 0.1081
vt 0.5384 0.1081
vt 0.4244 0.2222
vt 0.4244 0.1081
vt 0.5384 0.1081
vt 0.5384 0.2222
vt 0.5384 0.2222
vt 0.5384 0.2222
vt 0.5384 0.2222
vt 0.5384 0.2222
vn 0.0000 0.0000 -1.0000
vn 1.0000 0.0000 0.0000
vn 0.0000 0.0000 1.0000
vn -1.0000 0.0000 0.0000
vn 0.0000 -1.0000 0.0000
vn 0.0000 1.0000 0.0000
usemtl Material.001
s off
f 4/1/1 3/2/1 1/3/1
f 8/4/2 7/5/2 3/6/2
f 6/7/3 5/8/3 7/9/3
f 2/10/4 1/11/4 5/12/4
f 3/13/5 7/5/5 5/12/5
f 8/4/6 4/14/6 2/15/6
f 2/16/1 4/1/1 1/3/1
f 4/17/2 8/4/2 3/6/2
f 8/18/3 6/7/3 7/9/3
f 6/19/4 2/10/4 5/12/4
f 1/20/5 3/13/5 5/12/5
f 6/19/6 8/4/6 2/15/6
o llleg
v 0.051569 0.004610 -0.095960
v 0.051569 0.208345 -0.095960
v 0.113627 0.004610 -0.095960
v 0.113627 0.208345 -0.095960
v 0.051569 0.004610 -0.022446
v 0.051569 0.208345 -0.022446
v 0.113627 0.004610 -0.022446
v 0.113627 0.208345 -0.022446
vt 0.4074 0.1089
vt 0.4074 0.2338
vt 0.2826 0.2338
vt 0.4074 0.1089
vt 0.4074 0.2338
vt 0.2826 0.2338
vt 0.4074 0.1089
vt 0.4074 0.2338
vt 0.2826 0.2338
vt 0.4074 0.1089
vt 0.4074 0.2338
vt 0.2826 0.2338
vt 0.4074 0.1089
vt 0.4074 0.2338
vt 0.2826 0.2338
vt 0.2826 0.1089
vt 0.2826 0.1089
vt 0.2826 0.1089
vt 0.2826 0.1089
vt 0.2826 0.1089
vn 0.0000 0.0000 -1.0000
vn 1.0000 0.0000 0.0000
vn 0.0000 0.0000 1.0000
vn -1.0000 0.0000 0.0000
vn 0.0000 -1.0000 0.0000
vn 0.0000 1.0000 0.0000
usemtl Material.001
s off
f 12/21/7 11/22/7 9/23/7
f 16/24/8 15/25/8 11/26/8
f 14/27/9 13/28/9 15/29/9
f 10/30/10 9/31/10 13/32/10
f 11/33/11 15/25/11 13/32/11
f 16/24/12 12/34/12 10/35/12
f 10/36/7 12/21/7 9/23/7
f 12/37/8 16/24/8 11/26/8
f 16/38/9 14/27/9 15/29/9
f 14/39/10 10/30/10 13/32/10
f 9/40/11 11/33/11 13/32/11
f 14/39/12 16/24/12 10/35/12
o lfoot
v 0.051569 0.008809 -0.008663
v 0.051569 0.082961 -0.008663
v 0.113626 0.008809 -0.008663
v 0.113626 0.082961 -0.008663
v 0.051569 0.008809 0.103146
v 0.051569 0.082961 0.103146
v 0.113626 0.008809 0.103146
v 0.113626 0.082961 0.103146
vt 0.8869 0.2713
vt 0.8869 0.2951
vt 0.8631 0.2951
vt 0.8869 0.2713
vt 0.8869 0.2951
vt 0.8631 0.2951
vt 0.8869 0.2713
vt 0.8869 0.2951
vt 0.8631 0.2951
vt 0.8869 0.2713
vt 0.8869 0.2951
vt 0.8631 0.2951
vt 0.8869 0.2713
vt 0.8869 0.2951
vt 0.8631 0.2951
vt 0.8631 0.2713
vt 0.8631 0.2713
vt 0.8631 0.2713
vt 0.8631 0.2713
vt 0.8631 0.2713
vn 0.0000 0.0000 -1.0000
vn 1.0000 0.0000 0.0000
vn 0.0000 0.0000 1.0000
vn -1.0000 0.0000 0.0000
vn 0.0000 -1.0000 0.0000
vn 0.0000 1.0000 0.0000
usemtl Material.001
s off
f 20/41/13 19/42/13 17/43/13
f 24/44/14 23/45/14 19/46/14
f 22/47/15 21/48/15 23/49/15
f 18/50/16 17/51/16 21/52/16
f 19/53/17 23/45/17 21/52/17
f 24/44/18 20/54/18 18/55/18
f 18/56/13 20/41/13 17/43/13
f 20/57/14 24/44/14 19/46/14
f 24/58/15 22/47/15 23/49/15
f 22/59/16 18/50/16 21/52/16
f 17/60/17 19/53/17 21/52/17
f 22/59/18 24/44/18 18/55/18
o rfoot
v -0.110819 0.008809 -0.008663
v -0.110819 0.082961 -0.008663
v -0.048762 0.008809 -0.008663
v -0.048762 0.082961 -0.008663
v -0.110819 0.008809 0.103146
v -0.110819 0.082961 0.103146
v -0.048762 0.008809 0.103146
v -0.048762 0.082961 0.103146
vt 0.8955 0.2657
vt 0.8955 0.3003
vt 0.8610 0.3003
vt 0.8955 0.2657
vt 0.8955 0.3003
vt 0.8610 0.3003
vt 0.8955 0.2657
vt 0.8955 0.3003
vt 0.8610 0.3003
vt 0.8955 0.2657
vt 0.8955 0.3003
vt 0.8610 0.3003
vt 0.8955 0.2657
vt 0.8955 0.3003
vt 0.8610 0.3003
vt 0.8610 0.2657
vt 0.8610 0.2657
vt 0.8610 0.2657
vt 0.8610 0.2657
vt 0.8610 0.2657
vn 0.0000 0.0000 -1.0000
vn 1.0000 0.0000 0.0000
vn 0.0000 0.0000 1.0000
vn -1.0000 0.0000 0.0000
vn 0.0000 -1.0000 0.0000
vn 0.0000 1.0000 0.0000
usemtl Material.001
s off
f 28/61/19 27/62/19 25/63/19
f 32/64/20 31/65/20 27/66/20
f 30/67/21 29/68/21 31/69/21
f 26/70/22 25/71/22 29/72/22
f 27/73/23 31/65/23 29/72/23
f 32/64/24 28/74/24 26/75/24
f 26/76/19 28/61/19 25/63/19
f 28/77/20 32/64/20 27/66/20
f 32/78/21 30/67/21 31/69/21
f 30/79/22 26/70/22 29/72/22
f 25/80/23 27/73/23 29/72/23
f 30/79/24 32/64/24 26/75/24
o rlleg
v -0.110819 0.004610 -0.095960
v -0.110819 0.208345 -0.095960
v -0.048762 0.004610 -0.095960
v -0.048762 0.208345 -0.095960
v -0.110819 0.004610 -0.022446
v -0.110819 0.208345 -0.022446
v -0.048762 0.004610 -0.022446
v -0.048762 0.208345 -0.022446
vt 0.2738 0.1929
vt 0.2738 0.0754
vt 0.3914 0.0754
vt 0.2738 0.1929
vt 0.2738 0.0754
vt 0.3914 0.0754
vt 0.2738 0.1929
vt 0.2738 0.0754
vt 0.3914 0.0754
vt 0.2738 0.1929
vt 0.2738 0.0754
vt 0.3914 0.0754
vt 0.2738 0.1929
vt 0.2738 0.0754
vt 0.3914 0.0754
vt 0.3914 0.1929
vt 0.3914 0.1929
vt 0.3914 0.1929
vt 0.3914 0.1929
vt 0.3914 0.1929
vn 0.0000 0.0000 -1.0000
vn 1.0000 0.0000 0.0000
vn 0.0000 0.0000 1.0000
vn -1.0000 0.0000 0.0000
vn 0.0000 -1.0000 0.0000
vn 0.0000 1.0000 0.0000
usemtl Material.001
s off
f 36/81/25 35/82/25 33/83/25
f 40/84/26 39/85/26 35/86/26
f 38/87/27 37/88/27 39/89/27
f 34/90/28 33/91/28 37/92/28
f 35/93/29 39/85/29 37/92/29
f 40/84/30 36/94/30 34/95/30
f 34/96/25 36/81/25 33/83/25
f 36/97/26 40/84/26 35/86/26
f 40/98/27 38/87/27 39/89/27
f 38/99/28 34/90/28 37/92/28
f 33/100/29 35/93/29 37/92/29
f 38/99/30 40/84/30 34/95/30
o luarm
v 0.161023 0.717241 -0.115108
v 0.161023 0.913485 -0.115108
v 0.223081 0.717241 -0.115108
v 0.223081 0.913485 -0.115108
v 0.161023 0.717241 -0.003299
v 0.161023 0.913485 -0.003299
v 0.223081 0.717241 -0.003299
v 0.223081 0.913485 -0.003299
vt 0.4946 0.2077
vt 0.4946 0.1598
vt 0.5426 0.1598
vt 0.4946 0.2077
vt 0.4946 0.1598
vt 0.5426 0.1598
vt 0.4946 0.2077
vt 0.4946 0.1598
vt 0.5426 0.1598
vt 0.4946 0.2077
vt 0.4946 0.1598
vt 0.5426 0.1598
vt 0.4946 0.2077
vt 0.4946 0.1598
vt 0.5426 0.1598
vt 0.5426 0.2077
vt 0.5426 0.2077
vt 0.5426 0.2077
vt 0.5426 0.2077
vt 0.5426 0.2077
vn 0.0000 0.0000 -1.0000
vn 1.0000 0.0000 0.0000
vn 0.0000 0.0000 1.0000
vn -1.0000 0.0000 0.0000
vn 0.0000 -1.0000 0.0000
vn 0.0000 1.0000 0.0000
usemtl Material.001
s off
f 44/101/31 43/102/31 41/103/31
f 48/104/32 47/105/32 43/106/32
f 46/107/33 45/108/33 47/109/33
f 42/110/34 41/111/34 45/112/34
f 43/113/35 47/105/35 45/112/35
f 48/104/36 44/114/36 42/115/36
f 42/116/31 44/101/31 41/103/31
f 44/117/32 48/104/32 43/106/32
f 48/118/33 46/107/33 47/109/33
f 46/119/34 42/110/34 45/112/34
f 41/120/35 43/113/35 45/112/35
f 46/119/36 48/104/36 42/115/36
o llarm
v 0.161023 0.550081 -0.115108
v 0.161023 0.707394 -0.115108
v 0.223081 0.550081 -0.115108
v 0.223081 0.707394 -0.115108
v 0.161023 0.550081 -0.003299
v 0.161023 0.707394 -0.003299
v 0.223081 0.550081 -0.003299
v 0.223081 0.707394 -0.003299
vt 0.4671 0.1981
vt 0.4671 0.2686
vt 0.3965 0.2686
vt 0.4671 0.1981
vt 0.4671 0.2686
vt 0.3965 0.2686
vt 0.4671 0.1981
vt 0.4671 0.2686
vt 0.3965 0.2686
vt 0.4671 0.1981
vt 0.4671 0.2686
vt 0.3965 0.2686
vt 0.4671 0.1981
vt 0.4671 0.2686
vt 0.3965 0.2686
vt 0.3965 0.1981
vt 0.3965 0.1981
vt 0.3965 0.1981
vt 0.3965 0.1981
vt 0.3965 0.1981
vn 0.0000 0.0000 -1.0000
vn 1.0000 0.0000 0.0000
vn 0.0000 0.0000 1.0000
vn -1.0000 0.0000 0.0000
vn 0.0000 -1.0000 0.0000
vn 0.0000 1.0000 0.0000
usemtl Material.001
s off
f 52/121/37 51/122/37 49/123/37
f 56/124/38 55/125/38 51/126/38
f 54/127/39 53/128/39 55/129/39
f 50/130/40 49/131/40 53/132/40
f 51/133/41 55/125/41 53/132/41
f 56/124/42 52/134/42 50/135/42
f 50/136/37 52/121/37 49/123/37
f 52/137/38 56/124/38 51/126/38
f 56/138/39 54/127/39 55/129/39
f 54/139/40 50/130/40 53/132/40
f 49/140/41 51/133/41 53/132/41
f 54/139/42 56/124/42 50/135/42
o rlarm
v -0.217075 0.550081 -0.115108
v -0.217075 0.707394 -0.115108
v -0.155017 0.550081 -0.115108
v -0.155017 0.707394 -0.115108
v -0.217075 0.550081 -0.003299
v -0.217075 0.707394 -0.003299
v -0.155017 0.550081 -0.003299
v -0.155017 0.707394 -0.003299
vt 0.2489 0.1868
vt 0.2489 0.2551
vt 0.1806 0.2551
vt 0.2489 0.1868
vt 0.2489 0.2551
vt 0.1806 0.2551
vt 0.2489 0.1868
vt 0.2489 0.2551
vt 0.1806 0.2551
vt 0.2489 0.1868
vt 0.2489 0.2551
vt 0.1806 0.2551
vt 0.2489 0.1868
vt 0.2489 0.2551
vt 0.1806 0.2551
vt 0.1806 0.1868
vt 0.1806 0.1868
vt 0.1806 0.1868
vt 0.1806 0.1868
vt 0.1806 0.1868
vn 0.0000 0.0000 -1.0000
vn 1.0000 0.0000 0.0000
vn 0.0000 0.0000 1.0000
vn -1.0000 0.0000 0.0000
vn 0.0000 -1.0000 0.0000
vn 0.0000 1.0000 0.0000
usemtl Material.001
s off
f 60/141/43 59/142/43 57/143/43
f 64/144/44 63/145/44 59/146/44
f 62/147/45 61/148/45 63/149/45
f 58/150/46 57/151/46 61/152/46
f 59/153/47 63/145/47 61/152/47
f 64/144/48 60/154/48 58/155/48
f 58/156/43 60/141/43 57/143/43
f 60/157/44 64/144/44 59/146/44
f 64/158/45 62/147/45 63/149/45
f 62/159/46 58/150/46 61/152/46
f 57/160/47 59/153/47 61/152/47
f 62/159/48 64/144/48 58/155/48
o ruleg
v -0.110819 0.217896 -0.115108
v -0.110819 0.421631 -0.115108
v -0.048762 0.217896 -0.115108
v -0.048762 0.421631 -0.115108
v -0.110819 0.217896 -0.003299
v -0.110819 0.421631 -0.003299
v -0.048762 0.217896 -0.003299
v -0.048762 0.421631 -0.003299
vt 0.4168 0.2049
vt 0.4168 0.3238
vt 0.2979 0.3238
vt 0.4168 0.2049
vt 0.4168 0.3238
vt 0.2979 0.3238
vt 0.4168 0.2049
vt 0.4168 0.3238
vt 0.2979 0.3238
vt 0.4168 0.2049
vt 0.4168 0.3238
vt 0.2979 0.3238
vt 0.4168 0.2049
vt 0.4168 0.3238
vt 0.2979 0.3238
vt 0.2979 0.2049
vt 0.2979 0.2049
vt 0.2979 0.2049
vt 0.2979 0.2049
vt 0.2979 0.2049
vn 0.0000 0.0000 -1.0000
vn 1.0000 0.0000 0.0000
vn 0.0000 0.0000 1.0000
vn -1.0000 0.0000 0.0000
vn 0.0000 -1.0000 0.0000
vn 0.0000 1.0000 0.0000
usemtl Material.001
s off
f 68/161/49 67/162/49 65/163/49
f 72/164/50 71/165/50 67/166/50
f 70/167/51 69/168/51 71/169/51
f 66/170/52 65/171/52 69/172/52
f 67/173/53 71/165/53 69/172/53
f 72/164/54 68/174/54 66/175/54
f 66/176/49 68/161/49 65/163/49
f 68/177/50 72/164/50 67/166/50
f 72/178/51 70/167/51 71/169/51
f 70/179/52 66/170/52 69/172/52
f 65/180/53 67/173/53 69/172/53
f 70/179/54 72/164/54 66/175/54
o ruarm
v -0.217075 0.717241 -0.115108
v -0.217075 0.913485 -0.115108
v -0.155017 0.717241 -0.115108
v -0.155017 0.913485 -0.115108
v -0.217075 0.717241 -0.003299
v -0.217075 0.913485 -0.003299
v -0.155017 0.717241 -0.003299
v -0.155017 0.913485 -0.003299
vt 0.5049 0.2656
vt 0.5049 0.3251
vt 0.4455 0.3251
vt 0.5049 0.2656
vt 0.5049 0.3251
vt 0.4455 0.3251
vt 0.5049 0.2656
vt 0.5049 0.3251
vt 0.4455 0.3251
vt 0.5049 0.2656
vt 0.5049 0.3251
vt 0.4455 0.3251
vt 0.5049 0.2656
vt 0.5049 0.3251
vt 0.4455 0.3251
vt 0.4455 0.2656
vt 0.4455 0.2656
vt 0.4455 0.2656
vt 0.4455 0.2656
vt 0.4455 0.2656
vn 0.0000 0.0000 -1.0000
vn 1.0000 0.0000 0.0000
vn 0.0000 0.0000 1.0000
vn -1.0000 0.0000 0.0000
vn 0.0000 -1.0000 0.0000
vn 0.0000 1.0000 0.0000
usemtl Material.001
s off
f 76/181/55 75/182/55 73/183/55
f 80/184/56 79/185/56 75/186/56
f 78/187/57 77/188/57 79/189/57
f 74/190/58 73/191/58 77/192/58
f 75/193/59 79/185/59 77/192/59
f 80/184/60 76/194/60 74/195/60
f 74/196/55 76/181/55 73/183/55
f 76/197/56 80/184/56 75/186/56
f 80/198/57 78/187/57 79/189/57
f 78/199/58 74/190/58 77/192/58
f 73/200/59 75/193/59 77/192/59
f 78/199/60 80/184/60 74/195/60
o body
v -0.139272 0.437238 -0.123382
v -0.139272 0.921064 -0.123382
v 0.140237 0.437238 -0.123382
v 0.140237 0.921064 -0.123382
v -0.139272 0.437238 0.004976
v -0.139272 0.921064 0.004976
v 0.140237 0.437238 0.004976
v 0.140237 0.921064 0.004976
vt 0.0939 0.1416
vt 0.0939 0.1960
vt 0.0395 0.1960
vt 0.1026 0.1408
vt 0.1026 0.1968
vt 0.0466 0.1968
vt 0.5679 0.8434
vt 0.5679 0.6114
vt 0.7999 0.6114
vt 0.1026 0.1408
vt 0.1026 0.1968
vt 0.0466 0.1968
vt 0.1026 0.1408
vt 0.1026 0.1968
vt 0.0466 0.1968
vt 0.0395 0.1416
vt 0.0466 0.1408
vt 0.7999 0.8434
vt 0.0466 0.1408
vt 0.0466 0.1408
vn 0.0000 0.0000 -1.0000
vn 1.0000 0.0000 0.0000
vn 0.0000 0.0000 1.0000
vn -1.0000 0.0000 0.0000
vn 0.0000 -1.0000 0.0000
vn 0.0000 1.0000 0.0000
usemtl Material.001
s off
f 84/201/61 83/202/61 81/203/61
f 88/204/62 87/205/62 83/206/62
f 86/207/63 85/208/63 87/209/63
f 82/210/64 81/211/64 85/212/64
f 83/213/65 87/205/65 85/212/65
f 88/204/66 84/214/66 82/215/66
f 82/216/61 84/201/61 81/203/61
f 84/217/62 88/204/62 83/206/62
f 88/218/63 86/207/63 87/209/63
f 86/219/64 82/210/64 85/212/64
f 81/220/65 83/213/65 85/212/65
f 86/219/66 88/204/66 82/215/66
o head
v -0.087702 0.937839 -0.115108
v -0.087702 1.181312 -0.115108
v 0.088668 0.937839 -0.115108
v 0.088668 1.181312 -0.115108
v -0.087702 0.937839 -0.003299
v -0.087702 1.181312 -0.003299
v 0.088668 0.937839 -0.003299
v 0.088668 1.181312 -0.003299
vt 0.3417 0.3237
vt 0.3417 0.2531
vt 0.4123 0.2531
vt 0.3417 0.3237
vt 0.3417 0.2531
vt 0.4123 0.2531
vt 0.1691 0.8210
vt 0.1691 0.6514
vt 0.3387 0.6514
vt 0.3417 0.3237
vt 0.3417 0.2531
vt 0.4123 0.2531
vt 0.3417 0.3237
vt 0.3417 0.2531
vt 0.4123 0.2531
vt 0.4123 0.3237
vt 0.4123 0.3237
vt 0.3387 0.8210
vt 0.4123 0.3237
vt 0.4123 0.3237
vn 0.0000 0.0000 -1.0000
vn 1.0000 0.0000 0.0000
vn 0.0000 0.0000 1.0000
vn -1.0000 0.0000 0.0000
vn 0.0000 -1.0000 0.0000
vn 0.0000 1.0000 0.0000
usemtl Material.001
s off
f 92/221/67 91/222/67 89/223/67
f 96/224/68 95/225/68 91/226/68
f 94/227/69 93/228/69 95/229/69
f 90/230/70 89/231/70 93/232/70
f 91/233/71 95/225/71 93/232/71
f 96/224/72 92/234/72 90/235/72
f 90/236/67 92/221/67 89/223/67
f 92/237/68 96/224/68 91/226/68
f 96/238/69 94/227/69 95/229/69
f 94/239/70 90/230/70 93/232/70
f 89/240/71 91/233/71 93/232/71
f 94/239/72 96/224/72 90/235/72
