# Blender v2.76 (sub 0) OBJ File: 'saturn.blend'
# www.blender.org
mtllib saturn.mtl
o Icosphere
v 0.000000 0.000000 -1.455259
v -0.283907 0.000000 -1.427297
v -0.556904 0.000000 -1.344484
v -0.808499 0.000000 -1.210004
v -1.029023 0.000000 -1.029023
v -1.210004 0.000000 -0.808499
v -1.344484 0.000000 -0.556903
v -1.427297 0.000000 -0.283907
v -1.455259 0.000000 -0.000000
v -1.427297 0.000000 0.283907
v -1.344484 0.000000 0.556903
v -1.210004 0.000000 0.808499
v -1.029023 0.000000 1.029023
v -0.808499 0.000000 1.210004
v -0.556903 0.000000 1.344484
v -0.283907 0.000000 1.427297
v 0.000000 0.000000 1.455259
v 0.283908 0.000000 1.427296
v 0.556904 0.000000 1.344484
v 0.808499 0.000000 1.210003
v 1.029024 0.000000 1.029023
v 1.210004 0.000000 0.808498
v 1.344484 0.000000 0.556902
v 1.427297 0.000000 0.283906
v 1.455259 0.000000 -0.000001
v 1.427296 0.000000 -0.283908
v 1.344483 0.000000 -0.556905
v 1.210003 0.000000 -0.808500
v 1.029022 0.000000 -1.029025
v 0.808497 0.000000 -1.210005
v 0.556902 0.000000 -1.344485
v 0.283905 0.000000 -1.427297
v 0.000000 0.000000 -1.854957
v -0.361884 0.000000 -1.819315
v -0.709862 0.000000 -1.713757
v -1.030559 0.000000 -1.542341
v -1.311653 0.000000 -1.311653
v -1.542341 0.000000 -1.030559
v -1.713757 0.000000 -0.709861
v -1.819315 0.000000 -0.361884
v -1.854957 0.000000 -0.000000
v -1.819315 0.000000 0.361884
v -1.713757 0.000000 0.709861
v -1.542341 0.000000 1.030559
v -1.311653 0.000000 1.311653
v -1.030559 0.000000 1.542341
v -0.709861 0.000000 1.713758
v -0.361884 0.000000 1.819315
v 0.000001 0.000000 1.854958
v 0.361885 0.000000 1.819315
v 0.709862 0.000000 1.713757
v 1.030560 0.000000 1.542340
v 1.311654 0.000000 1.311652
v 1.542342 0.000000 1.030558
v 1.713758 0.000000 0.709860
v 1.819315 0.000000 0.361883
v 1.854957 0.000000 -0.000002
v 1.819315 0.000000 -0.361886
v 1.713756 0.000000 -0.709863
v 1.542340 0.000000 -1.030561
v 1.311651 0.000000 -1.311654
v 1.030557 0.000000 -1.542342
v 0.709859 0.000000 -1.713758
v 0.361881 0.000000 -1.819315
v -0.283907 -0.139316 -1.427297
v 0.000000 -0.139316 -1.455259
v -0.556904 -0.139316 -1.344484
v -0.808499 -0.139316 -1.210004
v -1.029023 -0.139316 -1.029023
v -1.210004 -0.139316 -0.808499
v -1.344484 -0.139316 -0.556903
v -1.427297 -0.139316 -0.283907
v -1.455259 -0.139316 -0.000000
v -1.427297 -0.139316 0.283907
v -1.344484 -0.139316 0.556903
v -1.210004 -0.139316 0.808499
v -1.029023 -0.139316 1.029023
v -0.808499 -0.139316 1.210004
v -0.556903 -0.139316 1.344484
v -0.283907 -0.139316 1.427297
v 0.000000 -0.139316 1.455259
v 0.283908 -0.139316 1.427296
v 0.556904 -0.139316 1.344484
v 0.808499 -0.139316 1.210003
v 1.029024 -0.139316 1.029023
v 1.210004 -0.139316 0.808498
v 1.344484 -0.139316 0.556902
v 1.427297 -0.139316 0.283906
v 1.455259 -0.139316 -0.000001
v 1.427296 -0.139316 -0.283908
v 1.344483 -0.139316 -0.556905
v 1.210003 -0.139316 -0.808500
v 1.029022 -0.139316 -1.029025
v 0.808497 -0.139316 -1.210005
v 0.556902 -0.139316 -1.344485
v 0.283905 -0.139316 -1.427297
v -0.361884 -0.139316 -1.819315
v 0.000000 -0.139316 -1.854957
v -0.709862 -0.139316 -1.713757
v -1.030559 -0.139316 -1.542341
v -1.311653 -0.139316 -1.311653
v -1.542341 -0.139316 -1.030559
v -1.713757 -0.139316 -0.709861
v -1.819315 -0.139316 -0.361884
v -1.854957 -0.139316 -0.000000
v -1.819315 -0.139316 0.361884
v -1.713757 -0.139316 0.709861
v -1.542341 -0.139316 1.030559
v -1.311653 -0.139316 1.311653
v -1.030559 -0.139316 1.542341
v -0.709861 -0.139316 1.713758
v -0.361884 -0.139316 1.819315
v 0.000001 -0.139316 1.854958
v 0.361885 -0.139316 1.819315
v 0.709862 -0.139316 1.713757
v 1.030560 -0.139316 1.542340
v 1.311654 -0.139316 1.311652
v 1.542342 -0.139316 1.030558
v 1.713758 -0.139316 0.709860
v 1.819315 -0.139316 0.361883
v 1.854957 -0.139316 -0.000002
v 1.819315 -0.139316 -0.361886
v 1.713756 -0.139316 -0.709863
v 1.542340 -0.139316 -1.030561
v 1.311651 -0.139316 -1.311654
v 1.030557 -0.139316 -1.542342
v 0.709859 -0.139316 -1.713758
v 0.361881 -0.139316 -1.819315
v 0.000000 -1.000000 0.000000
v 0.723607 -0.447220 0.525725
v -0.276388 -0.447220 0.850649
v -0.894426 -0.447216 0.000000
v -0.276388 -0.447220 -0.850649
v 0.723607 -0.447220 -0.525725
v 0.276388 0.447220 0.850649
v -0.723607 0.447220 0.525725
v -0.723607 0.447220 -0.525725
v 0.276388 0.447220 -0.850649
v 0.894426 0.447216 0.000000
v 0.000000 1.000000 0.000000
v -0.162456 -0.850654 0.499995
v 0.425323 -0.850654 0.309011
v 0.262869 -0.525738 0.809012
v 0.850648 -0.525736 0.000000
v 0.425323 -0.850654 -0.309011
v -0.525730 -0.850652 0.000000
v -0.688189 -0.525736 0.499997
v -0.162456 -0.850654 -0.499995
v -0.688189 -0.525736 -0.499997
v 0.262869 -0.525738 -0.809012
v 0.951058 0.000000 0.309013
v 0.951058 0.000000 -0.309013
v 0.000000 0.000000 1.000000
v 0.587786 0.000000 0.809017
v -0.951058 0.000000 0.309013
v -0.587786 0.000000 0.809017
v -0.587786 0.000000 -0.809017
v -0.951058 0.000000 -0.309013
v 0.587786 0.000000 -0.809017
v 0.000000 0.000000 -1.000000
v 0.688189 0.525736 0.499997
v -0.262869 0.525738 0.809012
v -0.850648 0.525736 0.000000
v -0.262869 0.525738 -0.809012
v 0.688189 0.525736 -0.499997
v 0.162456 0.850654 0.499995
v 0.525730 0.850652 0.000000
v -0.425323 0.850654 0.309011
v -0.425323 0.850654 -0.309011
v 0.162456 0.850654 -0.499995
vn 0.000000 1.000000 0.000000
vn 0.000000 -1.000000 0.000000
vn 0.098000 0.000000 0.995200
vn -0.956900 0.000000 -0.290300
vn 0.290300 0.000000 0.956900
vn -0.995200 0.000000 -0.098000
vn 0.471400 0.000000 0.881900
vn -0.995200 0.000000 0.098000
vn 0.634400 0.000000 0.773000
vn -0.956900 0.000000 0.290300
vn 0.773000 0.000000 0.634400
vn -0.881900 0.000000 0.471400
vn 0.881900 0.000000 0.471400
vn -0.773000 0.000000 0.634400
vn 0.956900 0.000000 0.290300
vn -0.634400 0.000000 0.773000
vn 0.995200 0.000000 0.098000
vn -0.471400 0.000000 0.881900
vn 0.995200 0.000000 -0.098000
vn -0.290300 0.000000 0.956900
vn 0.956900 0.000000 -0.290300
vn -0.098000 0.000000 0.995200
vn 0.881900 0.000000 -0.471400
vn -0.098000 0.000000 -0.995200
vn 0.773000 0.000000 -0.634400
vn -0.290300 0.000000 -0.956900
vn 0.634400 0.000000 -0.773000
vn -0.471400 0.000000 -0.881900
vn 0.471400 0.000000 -0.881900
vn -0.634400 0.000000 -0.773000
vn 0.290300 0.000000 -0.956900
vn -0.773000 0.000000 -0.634400
vn 0.098000 0.000000 -0.995200
vn -0.881900 0.000000 -0.471400
vn 0.102400 -0.943500 0.315100
vn 0.700200 -0.661700 0.268000
vn -0.268000 -0.943500 0.194700
vn -0.268000 -0.943500 -0.194700
vn 0.102400 -0.943500 -0.315100
vn 0.905000 -0.330400 0.268000
vn 0.024700 -0.330400 0.943500
vn -0.889700 -0.330400 0.315100
vn -0.574600 -0.330400 -0.748800
vn 0.534600 -0.330400 -0.777900
vn 0.802600 -0.125600 0.583100
vn -0.306600 -0.125600 0.943500
vn -0.992100 -0.125600 0.000000
vn -0.306600 -0.125600 -0.943500
vn 0.802600 -0.125600 -0.583100
vn 0.408900 0.661700 0.628400
vn -0.471300 0.661700 0.583100
vn -0.700200 0.661700 -0.268000
vn 0.038500 0.661700 -0.748800
vn 0.724000 0.661700 -0.194700
vn 0.268000 0.943500 -0.194700
vn 0.491100 0.794700 -0.356800
vn 0.408900 0.661700 -0.628400
vn -0.102400 0.943500 -0.315100
vn -0.187600 0.794700 -0.577300
vn -0.471300 0.661700 -0.583100
vn -0.331300 0.943500 0.000000
vn -0.607100 0.794700 0.000000
vn -0.700200 0.661700 0.268000
vn -0.102400 0.943500 0.315100
vn -0.187600 0.794700 0.577300
vn 0.038500 0.661700 0.748800
vn 0.268000 0.943500 0.194700
vn 0.491100 0.794700 0.356800
vn 0.724000 0.661700 0.194700
vn 0.889700 0.330400 -0.315100
vn 0.794700 0.187600 -0.577300
vn 0.574600 0.330400 -0.748800
vn -0.024700 0.330400 -0.943500
vn -0.303500 0.187600 -0.934200
vn -0.534600 0.330400 -0.777900
vn -0.905000 0.330400 -0.268000
vn -0.982200 0.187600 0.000000
vn -0.905000 0.330400 0.268000
vn -0.534600 0.330400 0.777900
vn -0.303500 0.187600 0.934200
vn -0.024700 0.330400 0.943500
vn 0.574600 0.330400 0.748800
vn 0.794700 0.187600 0.577300
vn 0.889700 0.330400 0.315100
vn 0.306600 0.125600 -0.943500
vn 0.303500 -0.187600 -0.934200
vn 0.024700 -0.330400 -0.943500
vn -0.802600 0.125600 -0.583100
vn -0.794700 -0.187600 -0.577300
vn -0.889700 -0.330400 -0.315100
vn -0.802600 0.125600 0.583100
vn -0.794700 -0.187600 0.577300
vn -0.574600 -0.330400 0.748800
vn 0.306600 0.125600 0.943500
vn 0.303500 -0.187600 0.934200
vn 0.534600 -0.330400 0.777900
vn 0.992100 0.125600 0.000000
vn 0.982200 -0.187600 0.000000
vn 0.905000 -0.330400 -0.268000
vn 0.471300 -0.661700 -0.583100
vn 0.187600 -0.794700 -0.577300
vn -0.038500 -0.661700 -0.748800
vn -0.408900 -0.661700 -0.628400
vn -0.491100 -0.794700 -0.356800
vn -0.724000 -0.661700 -0.194700
vn -0.724000 -0.661700 0.194700
vn -0.491100 -0.794700 0.356800
vn -0.408900 -0.661700 0.628400
vn 0.700200 -0.661700 -0.268000
vn 0.607100 -0.794700 0.000000
vn 0.331300 -0.943500 0.000000
vn -0.038500 -0.661700 0.748800
vn 0.187600 -0.794700 0.577300
vn 0.471300 -0.661700 0.583100
usemtl SaturnRing
s off
f 17//1 16//1 48//1 49//1
f 4//1 3//1 35//1 36//1
f 31//1 30//1 62//1 63//1
f 18//1 17//1 49//1 50//1
f 5//1 4//1 36//1 37//1
f 32//1 31//1 63//1 64//1
f 19//1 18//1 50//1 51//1
f 6//1 5//1 37//1 38//1
f 1//1 32//1 64//1 33//1
f 20//1 19//1 51//1 52//1
f 7//1 6//1 38//1 39//1
f 21//1 20//1 52//1 53//1
f 8//1 7//1 39//1 40//1
f 22//1 21//1 53//1 54//1
f 9//1 8//1 40//1 41//1
f 23//1 22//1 54//1 55//1
f 10//1 9//1 41//1 42//1
f 24//1 23//1 55//1 56//1
f 11//1 10//1 42//1 43//1
f 25//1 24//1 56//1 57//1
f 12//1 11//1 43//1 44//1
f 26//1 25//1 57//1 58//1
f 13//1 12//1 44//1 45//1
f 27//1 26//1 58//1 59//1
f 14//1 13//1 45//1 46//1
f 28//1 27//1 59//1 60//1
f 15//1 14//1 46//1 47//1
f 2//1 1//1 33//1 34//1
f 29//1 28//1 60//1 61//1
f 16//1 15//1 47//1 48//1
f 3//1 2//1 34//1 35//1
f 30//1 29//1 61//1 62//1
f 81//2 113//2 112//2 80//2
f 68//2 100//2 99//2 67//2
f 95//2 127//2 126//2 94//2
f 82//2 114//2 113//2 81//2
f 69//2 101//2 100//2 68//2
f 96//2 128//2 127//2 95//2
f 83//2 115//2 114//2 82//2
f 70//2 102//2 101//2 69//2
f 66//2 98//2 128//2 96//2
f 84//2 116//2 115//2 83//2
f 71//2 103//2 102//2 70//2
f 85//2 117//2 116//2 84//2
f 72//2 104//2 103//2 71//2
f 86//2 118//2 117//2 85//2
f 73//2 105//2 104//2 72//2
f 87//2 119//2 118//2 86//2
f 74//2 106//2 105//2 73//2
f 88//2 120//2 119//2 87//2
f 75//2 107//2 106//2 74//2
f 89//2 121//2 120//2 88//2
f 76//2 108//2 107//2 75//2
f 90//2 122//2 121//2 89//2
f 77//2 109//2 108//2 76//2
f 91//2 123//2 122//2 90//2
f 78//2 110//2 109//2 77//2
f 92//2 124//2 123//2 91//2
f 79//2 111//2 110//2 78//2
f 65//2 97//2 98//2 66//2
f 93//2 125//2 124//2 92//2
f 80//2 112//2 111//2 79//2
f 67//2 99//2 97//2 65//2
f 94//2 126//2 125//2 93//2
f 49//3 113//3 114//3 50//3
f 24//4 88//4 87//4 23//4
f 50//5 114//5 115//5 51//5
f 25//6 89//6 88//6 24//6
f 51//7 115//7 116//7 52//7
f 26//8 90//8 89//8 25//8
f 52//9 116//9 117//9 53//9
f 27//10 91//10 90//10 26//10
f 53//11 117//11 118//11 54//11
f 28//12 92//12 91//12 27//12
f 2//3 65//3 66//3 1//3
f 54//13 118//13 119//13 55//13
f 29//14 93//14 92//14 28//14
f 3//5 67//5 65//5 2//5
f 55//15 119//15 120//15 56//15
f 30//16 94//16 93//16 29//16
f 4//7 68//7 67//7 3//7
f 56//17 120//17 121//17 57//17
f 31//18 95//18 94//18 30//18
f 5//9 69//9 68//9 4//9
f 57//19 121//19 122//19 58//19
f 32//20 96//20 95//20 31//20
f 6//11 70//11 69//11 5//11
f 58//21 122//21 123//21 59//21
f 1//22 66//22 96//22 32//22
f 7//13 71//13 70//13 6//13
f 59//23 123//23 124//23 60//23
f 33//24 98//24 97//24 34//24
f 8//15 72//15 71//15 7//15
f 60//25 124//25 125//25 61//25
f 34//26 97//26 99//26 35//26
f 9//17 73//17 72//17 8//17
f 61//27 125//27 126//27 62//27
f 35//28 99//28 100//28 36//28
f 10//19 74//19 73//19 9//19
f 62//29 126//29 127//29 63//29
f 36//30 100//30 101//30 37//30
f 11//21 75//21 74//21 10//21
f 63//31 127//31 128//31 64//31
f 37//32 101//32 102//32 38//32
f 12//23 76//23 75//23 11//23
f 64//33 128//33 98//33 33//33
f 38//34 102//34 103//34 39//34
f 13//25 77//25 76//25 12//25
f 39//4 103//4 104//4 40//4
f 14//27 78//27 77//27 13//27
f 40//6 104//6 105//6 41//6
f 15//29 79//29 78//29 14//29
f 41//8 105//8 106//8 42//8
f 16//31 80//31 79//31 15//31
f 42//10 106//10 107//10 43//10
f 17//33 81//33 80//33 16//33
f 43//12 107//12 108//12 44//12
f 18//24 82//24 81//24 17//24
f 44//14 108//14 109//14 45//14
f 19//26 83//26 82//26 18//26
f 45//16 109//16 110//16 46//16
f 20//28 84//28 83//28 19//28
f 46//18 110//18 111//18 47//18
f 21//30 85//30 84//30 20//30
f 47//20 111//20 112//20 48//20
f 22//32 86//32 85//32 21//32
f 48//22 112//22 113//22 49//22
f 23//34 87//34 86//34 22//34
usemtl Saturn
f 129//35 142//35 141//35
f 130//36 142//36 144//36
f 129//37 141//37 146//37
f 129//38 146//38 148//38
f 129//39 148//39 145//39
f 130//40 144//40 151//40
f 131//41 143//41 153//41
f 132//42 147//42 155//42
f 133//43 149//43 157//43
f 134//44 150//44 159//44
f 130//45 151//45 154//45
f 131//46 153//46 156//46
f 132//47 155//47 158//47
f 133//48 157//48 160//48
f 134//49 159//49 152//49
f 135//50 161//50 166//50
f 136//51 162//51 168//51
f 137//52 163//52 169//52
f 138//53 164//53 170//53
f 139//54 165//54 167//54
f 167//55 170//55 140//55
f 167//56 165//56 170//56
f 165//57 138//57 170//57
f 170//58 169//58 140//58
f 170//59 164//59 169//59
f 164//60 137//60 169//60
f 169//61 168//61 140//61
f 169//62 163//62 168//62
f 163//63 136//63 168//63
f 168//64 166//64 140//64
f 168//65 162//65 166//65
f 162//66 135//66 166//66
f 166//67 167//67 140//67
f 166//68 161//68 167//68
f 161//69 139//69 167//69
f 152//70 165//70 139//70
f 152//71 159//71 165//71
f 159//72 138//72 165//72
f 160//73 164//73 138//73
f 160//74 157//74 164//74
f 157//75 137//75 164//75
f 158//76 163//76 137//76
f 158//77 155//77 163//77
f 155//78 136//78 163//78
f 156//79 162//79 136//79
f 156//80 153//80 162//80
f 153//81 135//81 162//81
f 154//82 161//82 135//82
f 154//83 151//83 161//83
f 151//84 139//84 161//84
f 159//85 160//85 138//85
f 159//86 150//86 160//86
f 150//87 133//87 160//87
f 157//88 158//88 137//88
f 157//89 149//89 158//89
f 149//90 132//90 158//90
f 155//91 156//91 136//91
f 155//92 147//92 156//92
f 147//93 131//93 156//93
f 153//94 154//94 135//94
f 153//95 143//95 154//95
f 143//96 130//96 154//96
f 151//97 152//97 139//97
f 151//98 144//98 152//98
f 144//99 134//99 152//99
f 145//100 150//100 134//100
f 145//101 148//101 150//101
f 148//102 133//102 150//102
f 148//103 149//103 133//103
f 148//104 146//104 149//104
f 146//105 132//105 149//105
f 146//106 147//106 132//106
f 146//107 141//107 147//107
f 141//108 131//108 147//108
f 144//109 145//109 134//109
f 144//110 142//110 145//110
f 142//111 129//111 145//111
f 141//112 143//112 131//112
f 141//113 142//113 143//113
f 142//114 130//114 143//114
