# Blender v2.76 (sub 0) OBJ File: 'sun.blend'
# www.blender.org
mtllib sun.mtl
o Torus.001
v 1.250000 0.000000 0.000000
v 1.155872 0.195458 0.000000
v 0.944370 0.243732 0.000000
v 0.774758 0.108471 0.000000
v 0.774758 -0.108471 0.000000
v 0.944370 -0.243732 0.000000
v 1.155872 -0.195458 0.000000
v 1.011271 0.000000 -0.734732
v 0.935120 0.195458 -0.679405
v 0.764011 0.243732 -0.555087
v 0.626792 0.108471 -0.455391
v 0.626792 -0.108471 -0.455391
v 0.764011 -0.243732 -0.555087
v 0.935120 -0.195458 -0.679405
v 0.386272 0.000000 -1.188821
v 0.357184 0.195458 -1.099300
v 0.291826 0.243732 -0.898149
v 0.239413 0.108471 -0.736838
v 0.239413 -0.108471 -0.736838
v 0.291826 -0.243732 -0.898149
v 0.357184 -0.195458 -1.099300
v -0.386271 0.000000 -1.188821
v -0.357184 0.195458 -1.099300
v -0.291826 0.243732 -0.898149
v -0.239413 0.108471 -0.736838
v -0.239413 -0.108471 -0.736838
v -0.291826 -0.243732 -0.898149
v -0.357184 -0.195458 -1.099300
v -1.011271 0.000000 -0.734731
v -0.935121 0.195458 -0.679404
v -0.764011 0.243732 -0.555086
v -0.626792 0.108471 -0.455391
v -0.626792 -0.108471 -0.455391
v -0.764011 -0.243732 -0.555086
v -0.935121 -0.195458 -0.679404
v -1.250000 0.000000 -0.000000
v -1.155872 0.195458 -0.000000
v -0.944370 0.243732 -0.000000
v -0.774758 0.108471 -0.000000
v -0.774758 -0.108471 -0.000000
v -0.944370 -0.243732 -0.000000
v -1.155872 -0.195458 -0.000000
v -1.011271 0.000000 0.734731
v -0.935121 0.195458 0.679404
v -0.764011 0.243732 0.555086
v -0.626792 0.108471 0.455391
v -0.626792 -0.108471 0.455391
v -0.764011 -0.243732 0.555086
v -0.935121 -0.195458 0.679404
v -0.386271 0.000000 1.188821
v -0.357184 0.195458 1.099300
v -0.291826 0.243732 0.898149
v -0.239413 0.108471 0.736838
v -0.239413 -0.108471 0.736838
v -0.291826 -0.243732 0.898149
v -0.357184 -0.195458 1.099300
v 0.386272 0.000000 1.188821
v 0.357184 0.195458 1.099300
v 0.291826 0.243732 0.898149
v 0.239413 0.108471 0.736838
v 0.239413 -0.108471 0.736838
v 0.291826 -0.243732 0.898149
v 0.357184 -0.195458 1.099300
v 1.011271 0.000000 0.734732
v 0.935120 0.195458 0.679405
v 0.764011 0.243732 0.555087
v 0.626792 0.108471 0.455392
v 0.626792 -0.108471 0.455392
v 0.764011 -0.243732 0.555087
v 0.935120 -0.195458 0.679405
v -0.239413 0.108471 -0.267513
v -0.564107 0.108471 -0.258968
v -0.564107 0.108471 -0.370048
v -0.239413 0.108471 -0.374320
v 0.200632 0.108471 -0.382865
v 0.469786 0.108471 -0.382865
v 0.474058 0.108471 -0.271785
v 0.196360 0.108471 -0.258968
v 0.004107 0.108471 0.334879
v -0.256502 0.108471 0.283612
v -0.401760 0.108471 0.099903
v -0.478661 0.108471 0.129809
v -0.324859 0.108471 0.377602
v 0.004107 0.108471 0.458775
v 0.371523 0.108471 0.347696
v 0.512508 0.108471 0.087087
v 0.422791 0.108471 0.031547
v 0.277533 0.108471 0.270795
v -0.531604 0.072116 -0.359570
v -0.271916 0.072116 -0.362987
v -0.271916 0.072116 -0.277563
v -0.531604 0.072116 -0.270729
v 0.440923 0.066923 -0.284275
v 0.437670 0.066923 -0.368846
v 0.229495 0.066923 -0.274516
v 0.232747 0.066923 -0.368846
v 0.239563 0.060288 0.266685
v 0.320058 0.060288 0.332545
v 0.363965 0.060288 0.061788
v 0.440801 0.060288 0.109353
v 0.005395 0.060288 0.427675
v 0.005395 0.060288 0.321568
v -0.217796 0.060288 0.277662
v -0.276338 0.060288 0.358157
v -0.342198 0.060288 0.120330
v -0.408058 0.060288 0.145942
v 0.098428 -0.108471 -0.211348
v 0.517111 -0.108471 -0.403600
v 0.367582 -0.108471 -0.083179
v -0.115185 -0.108471 -0.215620
v -0.491146 -0.108471 -0.377967
v -0.345888 -0.108471 -0.057545
v -0.012651 -0.108471 0.181702
v 0.290681 -0.108471 0.250059
v 0.418849 -0.108471 0.467945
v 0.277864 -0.108471 0.527757
v 0.183874 -0.108471 0.356866
v -0.021195 -0.108471 0.305599
v -0.221992 -0.108471 0.356866
v -0.345888 -0.108471 0.480762
v -0.444151 -0.108471 0.403861
v -0.298893 -0.108471 0.250059
v 0.363334 -0.051502 0.453971
v 0.240292 -0.051502 0.506171
v 0.158264 -0.051502 0.357029
v 0.251477 -0.051502 0.263815
v -0.013249 -0.051502 0.204159
v -0.020706 -0.051502 0.312287
v -0.195947 -0.051502 0.357029
v -0.263061 -0.051502 0.263816
v -0.389831 -0.051502 0.398043
v -0.304075 -0.051502 0.465157
v 0.142515 -0.052155 -0.215455
v 0.359915 -0.052155 -0.111931
v 0.480692 -0.052155 -0.370741
v -0.147213 -0.045898 -0.215845
v -0.341377 -0.045898 -0.082806
v -0.463629 -0.045898 -0.352480
v 1.013985 -0.103589 -0.891537
v 1.157412 -0.103589 -1.557525
v 0.598325 -0.103589 -1.200720
v 1.013985 0.032758 -0.891537
v 1.157412 0.032758 -1.557525
v 0.598325 0.032758 -1.200720
v -0.251403 0.032758 -1.326121
v -0.014811 0.032758 -1.945727
v 0.266638 0.032758 -1.325326
v -0.251403 -0.103589 -1.326121
v -0.014811 -0.103589 -1.945727
v 0.266638 -0.103589 -1.325326
v -1.009166 0.032758 -0.927214
v -1.173898 0.032758 -1.569671
v -0.585811 0.032758 -1.225774
v -1.009166 -0.103589 -0.927214
v -1.173898 -0.103589 -1.569671
v -0.585811 -0.103589 -1.225774
v -1.339393 0.032758 -0.187694
v -1.848209 0.032758 -0.613127
v -1.169977 0.032758 -0.677250
v -1.339393 -0.103589 -0.187694
v -1.848209 -0.103589 -0.613127
v -1.169977 -0.103589 -0.677250
v 1.337344 -0.103589 -0.167665
v 1.848665 -0.103589 -0.617846
v 1.186991 -0.103589 -0.663408
v 1.337344 0.032758 -0.167665
v 1.848665 0.032758 -0.617846
v 1.186991 0.032758 -0.663408
v 1.156938 -0.103589 0.670318
v 1.834722 -0.103589 0.601611
v 1.323040 -0.103589 0.179628
v 1.156938 0.032758 0.670318
v 1.834722 0.032758 0.601611
v 1.323040 0.032758 0.179628
v 0.561660 -0.103589 1.201071
v 1.153353 -0.103589 1.538726
v 0.981832 -0.103589 0.898048
v 0.561660 0.032758 1.201071
v 1.153353 0.032758 1.538726
v 0.981832 0.032758 0.898048
v -0.250867 -0.103589 1.300742
v 0.027849 -0.103589 1.922376
v 0.267166 -0.103589 1.303817
v -0.250867 0.032758 1.300742
v 0.027849 0.032758 1.922376
v 0.267166 0.032758 1.303817
v -0.979380 -0.103589 0.922870
v -1.113464 -0.103589 1.590801
v -0.559430 -0.103589 1.226200
v -0.979380 0.032758 0.922870
v -1.113464 0.032758 1.590801
v -0.559430 0.032758 1.226200
v -1.330814 -0.103589 0.215826
v -1.837162 -0.103589 0.671593
v -1.175028 -0.103589 0.709889
v -1.330814 0.032758 0.215826
v -1.837162 0.032758 0.671593
v -1.175028 0.032758 0.709889
vn 0.864700 0.416400 -0.281000
vn 0.221900 0.972400 -0.072100
vn -0.611100 0.766300 0.198600
vn 0.000000 1.000000 0.000000
vn 0.534400 0.416400 -0.735500
vn 0.137200 0.972400 -0.188800
vn -0.377700 0.766300 0.519800
vn 0.000000 0.416400 -0.909200
vn 0.000000 0.972400 -0.233400
vn 0.000000 0.766300 0.642500
vn -0.534400 0.416400 -0.735500
vn -0.137200 0.972400 -0.188800
vn 0.377700 0.766300 0.519800
vn -0.864700 0.416400 -0.281000
vn -0.221900 0.972400 -0.072100
vn 0.611100 0.766300 0.198600
vn 0.694400 -0.583200 0.421600
vn -0.864700 0.416400 0.281000
vn -0.221900 0.972400 0.072100
vn 0.611100 0.766300 -0.198600
vn -0.186100 -0.266300 0.945800
vn -0.534400 0.416400 0.735500
vn -0.137200 0.972400 0.188800
vn 0.377700 0.766300 -0.519800
vn -0.640600 -0.577100 0.506500
vn 0.000000 0.416400 0.909200
vn 0.000000 0.972400 0.233400
vn 0.000000 0.766300 -0.642500
vn -0.340900 0.761900 0.550700
vn 0.534400 0.416400 0.735500
vn 0.137200 0.972400 0.188800
vn -0.377700 0.766300 -0.519800
vn 0.000000 0.319700 0.947500
vn 0.864700 0.416400 0.281000
vn 0.221900 0.972400 0.072100
vn -0.611100 0.766300 -0.198600
vn 0.012600 0.287300 0.957800
vn 0.745500 0.666500 0.000000
vn -0.025200 0.287200 -0.957500
vn -0.745500 0.666500 0.000000
vn -0.785900 0.617700 0.030200
vn 0.786500 0.617100 0.027100
vn -0.043700 0.319400 -0.946600
vn 0.580600 0.730100 -0.360400
vn 0.220700 -0.254200 0.941600
vn 0.277100 0.644600 0.712500
vn -0.594900 0.736600 -0.321800
vn 0.202400 0.534900 -0.820300
vn -0.247000 0.520800 -0.817100
vn -0.538000 0.000000 -0.843000
vn -0.596800 0.000000 0.802400
vn 0.977600 0.000000 0.210500
vn 0.910700 0.000000 -0.413100
vn -0.001500 0.000000 1.000000
vn -0.934200 0.000000 -0.356700
vn 0.504800 0.000000 -0.863200
vn 0.576300 0.000000 0.817200
vn -0.968700 0.000000 0.248400
vn -0.094100 0.000000 -0.995600
vn 0.945000 0.000000 0.327000
vn -0.641400 0.000000 0.767200
vn 0.068700 0.000000 -0.997600
vn -0.957000 0.000000 0.290200
vn 0.660800 0.000000 0.750600
vn 0.636200 0.000000 -0.771500
vn -0.947200 0.000000 -0.320600
vn 0.100900 0.000000 0.994900
vn 0.966000 0.000000 -0.258600
vn -0.584900 0.000000 -0.811100
vn -0.495600 0.000000 0.868500
vn 0.932600 0.000000 0.360800
vn 0.005900 0.000000 -1.000000
vn -0.912500 0.000000 0.409100
vn 0.549700 0.000000 0.835300
vn 0.585500 0.000000 -0.810600
vn -0.980400 0.000000 -0.196800
vn -0.057700 0.000000 0.998300
vn 0.953700 0.000000 -0.300700
vn -0.669000 0.000000 -0.743300
vn -0.611100 -0.766300 0.198600
vn 0.221900 -0.972400 -0.072100
vn 0.864700 -0.416400 -0.281000
vn -0.377700 -0.766300 0.519800
vn 0.137200 -0.972400 -0.188800
vn 0.534400 -0.416400 -0.735500
vn 0.000000 -0.766300 0.642500
vn 0.000000 -0.972400 -0.233400
vn 0.000000 -0.416400 -0.909200
vn 0.377700 -0.766300 0.519800
vn -0.137200 -0.972400 -0.188800
vn -0.534400 -0.416400 -0.735500
vn 0.611100 -0.766300 0.198600
vn -0.221900 -0.972400 -0.072100
vn -0.864700 -0.416400 -0.281000
vn 0.611100 -0.766300 -0.198600
vn -0.221900 -0.972400 0.072100
vn -0.864700 -0.416400 0.281000
vn 0.377700 -0.766300 -0.519800
vn -0.137200 -0.972400 0.188800
vn -0.534400 -0.416400 0.735500
vn 0.000000 -0.766300 -0.642500
vn 0.000000 -0.972400 0.233400
vn 0.000000 -0.416400 0.909200
vn -0.377700 -0.766300 -0.519800
vn 0.137200 -0.972400 0.188800
vn 0.534400 -0.416400 0.735500
vn -0.611100 -0.766300 -0.198600
vn 0.221900 -0.972400 0.072100
vn 0.864700 -0.416400 0.281000
vn 0.403800 -0.252000 0.879400
vn -0.388800 -0.195700 0.900300
vn 0.814900 0.367600 -0.448200
vn -0.672400 0.309300 -0.672400
vn -0.245700 0.115100 -0.962500
vn -0.333900 -0.518500 -0.787200
vn 0.000000 -1.000000 0.000000
vn 0.241000 0.111100 -0.964100
vn 0.617000 -0.528800 0.582800
vn 0.217100 -0.356000 0.908900
vn -0.205000 -0.360800 0.909800
vn -0.701000 -0.581900 0.412300
vn 0.512500 -0.555500 -0.654800
vn -0.858100 -0.321300 -0.400500
vn 0.398800 -0.373300 -0.837600
vn 0.887200 -0.226300 -0.402200
vn -0.542500 -0.280500 -0.791800
usemtl SunSide
s off
f 1//1 8//1 9//1 2//1
f 2//2 9//2 10//2 3//2
f 3//3 10//3 11//3 4//3
f 53//4 84//4 83//4 46//4
f 8//5 15//5 16//5 9//5
f 9//6 16//6 17//6 10//6
f 10//7 17//7 18//7 11//7
f 60//4 84//4 53//4
f 15//8 22//8 23//8 16//8
f 16//9 23//9 24//9 17//9
f 17//10 24//10 25//10 18//10
f 60//4 67//4 85//4 84//4
f 22//11 29//11 30//11 23//11
f 23//12 30//12 31//12 24//12
f 24//13 31//13 32//13 25//13
f 4//4 86//4 85//4 67//4
f 29//14 36//14 37//14 30//14
f 30//15 37//15 38//15 31//15
f 31//16 38//16 39//16 32//16
f 87//17 88//17 97//17 99//17
f 36//18 43//18 44//18 37//18
f 37//19 44//19 45//19 38//19
f 38//20 45//20 46//20 39//20
f 79//21 80//21 103//21 102//21
f 43//22 50//22 51//22 44//22
f 44//23 51//23 52//23 45//23
f 45//24 52//24 53//24 46//24
f 80//25 81//25 105//25 103//25
f 50//26 57//26 58//26 51//26
f 51//27 58//27 59//27 52//27
f 52//28 59//28 60//28 53//28
f 86//29 87//29 99//29 100//29
f 57//30 64//30 65//30 58//30
f 58//31 65//31 66//31 59//31
f 59//32 66//32 67//32 60//32
f 76//33 75//33 96//33 94//33
f 64//34 1//34 2//34 65//34
f 65//35 2//35 3//35 66//35
f 66//36 3//36 4//36 67//36
f 74//37 73//37 89//37 90//37
f 39//4 46//4 83//4 82//4
f 71//4 72//4 81//4
f 77//4 78//4 87//4
f 87//4 86//4 4//4 77//4
f 76//4 77//4 4//4 11//4
f 75//4 76//4 11//4 18//4
f 18//4 25//4 74//4 75//4
f 75//4 74//4 71//4 78//4
f 71//4 81//4 87//4 78//4
f 80//4 79//4 81//4
f 88//4 87//4 79//4
f 81//4 79//4 87//4
f 81//4 72//4 39//4 82//4
f 32//4 39//4 72//4 73//4
f 25//4 32//4 73//4 74//4
f 89//4 92//4 91//4 90//4
f 73//38 72//38 92//38 89//38
f 72//39 71//39 91//39 92//39
f 71//40 74//40 90//40 91//40
f 94//4 96//4 95//4 93//4
f 77//41 76//41 94//41 93//41
f 75//42 78//42 95//42 96//42
f 78//43 77//43 93//43 95//43
f 103//4 105//4 106//4 104//4
f 101//4 102//4 103//4 104//4
f 102//4 101//4 98//4 97//4
f 99//4 97//4 98//4 100//4
f 82//44 83//44 104//44 106//44
f 88//45 79//45 102//45 97//45
f 81//46 82//46 106//46 105//46
f 85//47 86//47 100//47 98//47
f 83//48 84//48 101//48 104//48
f 84//49 85//49 98//49 101//49
f 143//50 140//50 141//50 144//50
f 144//51 141//51 139//51 142//51
f 142//52 139//52 140//52 143//52
f 144//4 142//4 143//4
f 145//4 147//4 146//4
f 147//53 150//53 149//53 146//53
f 145//54 148//54 150//54 147//54
f 146//55 149//55 148//55 145//55
f 151//4 153//4 152//4
f 153//56 156//56 155//56 152//56
f 151//57 154//57 156//57 153//57
f 152//58 155//58 154//58 151//58
f 157//4 159//4 158//4
f 159//59 162//59 161//59 158//59
f 157//60 160//60 162//60 159//60
f 158//61 161//61 160//61 157//61
f 167//62 164//62 165//62 168//62
f 168//63 165//63 163//63 166//63
f 166//64 163//64 164//64 167//64
f 168//4 166//4 167//4
f 173//65 170//65 171//65 174//65
f 174//66 171//66 169//66 172//66
f 172//67 169//67 170//67 173//67
f 174//4 172//4 173//4
f 179//68 176//68 177//68 180//68
f 180//69 177//69 175//69 178//69
f 178//70 175//70 176//70 179//70
f 180//4 178//4 179//4
f 185//71 182//71 183//71 186//71
f 186//72 183//72 181//72 184//72
f 184//73 181//73 182//73 185//73
f 186//4 184//4 185//4
f 191//74 188//74 189//74 192//74
f 192//75 189//75 187//75 190//75
f 190//76 187//76 188//76 191//76
f 192//4 190//4 191//4
f 197//77 194//77 195//77 198//77
f 198//78 195//78 193//78 196//78
f 196//79 193//79 194//79 197//79
f 198//4 196//4 197//4
usemtl MoonSide
f 5//80 12//80 13//80 6//80
f 6//81 13//81 14//81 7//81
f 1//82 7//82 14//82 8//82
f 12//83 19//83 20//83 13//83
f 13//84 20//84 21//84 14//84
f 14//85 21//85 15//85 8//85
f 19//86 26//86 27//86 20//86
f 20//87 27//87 28//87 21//87
f 21//88 28//88 22//88 15//88
f 26//89 33//89 34//89 27//89
f 27//90 34//90 35//90 28//90
f 28//91 35//91 29//91 22//91
f 33//92 40//92 41//92 34//92
f 34//93 41//93 42//93 35//93
f 35//94 42//94 36//94 29//94
f 40//95 47//95 48//95 41//95
f 41//96 48//96 49//96 42//96
f 42//97 49//97 43//97 36//97
f 47//98 54//98 55//98 48//98
f 48//99 55//99 56//99 49//99
f 49//100 56//100 50//100 43//100
f 54//101 61//101 62//101 55//101
f 55//102 62//102 63//102 56//102
f 56//103 63//103 57//103 50//103
f 61//104 68//104 69//104 62//104
f 62//105 69//105 70//105 63//105
f 63//106 70//106 64//106 57//106
f 68//107 5//107 6//107 69//107
f 69//108 6//108 7//108 70//108
f 70//109 7//109 1//109 64//109
f 107//110 108//110 135//110 133//110
f 111//111 110//111 136//111 138//111
f 116//112 117//112 125//112 124//112
f 119//113 120//113 132//113 129//113
f 118//114 119//114 129//114 128//114
f 115//115 116//115 124//115 123//115
f 110//116 113//116 122//116 112//116
f 107//116 109//116 114//116 113//116
f 113//116 110//116 107//116
f 19//116 107//116 110//116 26//116
f 107//116 19//116 108//116
f 19//116 12//116 108//116
f 110//116 111//116 26//116
f 26//116 111//116 33//116
f 33//116 111//116 112//116 40//116
f 122//116 121//116 40//116 112//116
f 40//116 121//116 47//116
f 54//116 47//116 121//116 120//116
f 54//116 120//116 116//116 61//116
f 117//116 116//116 118//116
f 119//116 118//116 120//116
f 61//116 116//116 115//116 68//116
f 115//116 114//116 109//116 68//116
f 68//116 109//116 5//116
f 12//116 5//116 109//116 108//116
f 120//116 118//116 116//116
f 123//116 124//116 125//116 126//116
f 128//116 127//116 126//116 125//116
f 127//116 128//116 129//116 130//116
f 132//116 131//116 130//116 129//116
f 117//117 118//117 128//117 125//117
f 121//118 122//118 130//118 131//118
f 122//119 113//119 127//119 130//119
f 113//120 114//120 126//120 127//120
f 114//121 115//121 123//121 126//121
f 120//122 121//122 131//122 132//122
f 133//116 135//116 134//116
f 108//123 109//123 134//123 135//123
f 109//124 107//124 133//124 134//124
f 136//116 137//116 138//116
f 112//125 111//125 138//125 137//125
f 110//126 112//126 137//126 136//126
f 141//116 140//116 139//116
f 148//116 149//116 150//116
f 154//116 155//116 156//116
f 160//116 161//116 162//116
f 165//116 164//116 163//116
f 171//116 170//116 169//116
f 177//116 176//116 175//116
f 183//116 182//116 181//116
f 189//116 188//116 187//116
f 195//116 194//116 193//116
