# Blender v2.77 (sub 0) OBJ File: 'example.blend'
# www.blender.org
mtllib example.mtl
o Cube.007
v 1.000000 -1.000000 -3.006750
v 1.000000 -1.000000 -1.006750
v -1.000000 -1.000000 -1.006750
v -1.000000 -1.000000 -3.006750
v 1.000000 1.000000 -3.006749
v 0.999999 1.000000 -1.006749
v -1.000000 1.000000 -1.006750
v -1.000000 1.000000 -3.006750
vt 0.9999 0.9999
vt 0.0001 0.0001
vt 0.9999 0.0001
vt 0.0001 0.9999
vt 0.9999 0.0001
vt 0.9999 0.9999
vt 0.9955 0.9956
vt 0.0001 0.0001
vt 0.9999 0.0001
vt 0.9999 0.9999
vt 0.9999 0.0001
vt 0.0001 0.0001
vt 0.9999 0.9999
vt 0.0001 0.9999
vt 0.9999 1.0000
vt 0.0001 0.0001
vt 0.9999 0.0001
vt 0.0001 0.9999
vt 0.0001 1.0000
vt 0.0001 0.9999
vt 0.9999 0.0001
vt 0.0001 0.9971
vn 0.0000 -1.0000 0.0000
vn 0.0000 1.0000 0.0000
vn 1.0000 -0.0000 0.0000
vn 0.0000 -0.0000 1.0000
vn -1.0000 -0.0000 -0.0000
vn 0.0000 0.0000 -1.0000
usemtl Material
s off
f 1/1/1 3/2/1 4/3/1
f 8/4/2 6/5/2 5/6/2
f 5/7/3 2/8/3 1/9/3
f 6/10/4 3/2/4 2/11/4
f 7/12/5 4/13/5 3/14/5
f 1/15/6 8/16/6 5/17/6
f 1/1/1 2/18/1 3/2/1
f 8/4/2 7/12/2 6/5/2
f 5/7/3 6/19/3 2/8/3
f 6/10/4 7/20/4 3/2/4
f 7/12/5 8/21/5 4/13/5
f 1/15/6 4/22/6 8/16/6
o Cube.006
v 3.002717 -1.000088 -3.007422
v 3.002717 -1.000088 -1.007422
v 1.002716 -1.000088 -1.007422
v 1.002717 -1.000088 -3.007422
v 3.002717 0.999912 -3.007421
v 3.002716 0.999912 -1.007421
v 1.002716 0.999912 -1.007422
v 1.002717 0.999912 -3.007422
vt 0.9999 0.9999
vt 0.0001 0.0001
vt 0.9999 0.0001
vt 0.0001 0.9999
vt 0.9999 0.0001
vt 0.9999 0.9999
vt 0.9955 0.9956
vt 0.0001 0.0001
vt 0.9999 0.0001
vt 0.9999 0.9999
vt 0.9999 0.0001
vt 0.0001 0.9999
vt 0.9999 0.0001
vt 0.9999 0.9999
vt 0.9999 1.0000
vt 0.0001 0.0001
vt 0.9999 0.0001
vt 0.0001 0.9999
vt 0.0001 0.0001
vt 0.0001 1.0000
vt 0.0001 0.9999
vt 0.0001 0.9971
vn 0.0000 -1.0000 0.0000
vn 0.0000 1.0000 0.0000
vn 1.0000 -0.0000 0.0000
vn 0.0000 -0.0000 1.0000
vn -1.0000 -0.0000 -0.0000
vn 0.0000 0.0000 -1.0000
usemtl Material
s off
f 9/23/7 11/24/7 12/25/7
f 16/26/8 14/27/8 13/28/8
f 13/29/9 10/30/9 9/31/9
f 14/32/10 11/24/10 10/33/10
f 11/34/11 16/35/11 12/36/11
f 9/37/12 16/38/12 13/39/12
f 9/23/7 10/40/7 11/24/7
f 16/26/8 15/41/8 14/27/8
f 13/29/9 14/42/9 10/30/9
f 14/32/10 15/43/10 11/24/10
f 11/34/11 15/41/11 16/35/11
f 9/37/12 12/44/12 16/38/12
o Cube.005
v 5.007301 -1.000088 -3.007422
v 5.007301 -1.000088 -1.007422
v 3.007301 -1.000088 -1.007422
v 3.007301 -1.000088 -3.007422
v 5.007301 0.999912 -3.007421
v 5.007300 0.999912 -1.007421
v 3.007300 0.999912 -1.007422
v 3.007301 0.999912 -3.007422
vt 0.0001 0.9999
vt 0.9999 0.0001
vt 0.9999 0.9999
vt 0.0001 0.9999
vt 0.9999 0.0001
vt 0.9999 0.9999
vt 0.9955 0.9956
vt 0.0001 0.0001
vt 0.9999 0.0001
vt 0.9999 0.9999
vt 0.0001 0.0001
vt 0.9999 0.0001
vt 0.0001 0.9999
vt 0.9999 0.0001
vt 0.9999 0.9999
vt 0.9999 1.0000
vt 0.0001 0.0001
vt 0.9999 0.0001
vt 0.0001 0.0001
vt 0.0001 1.0000
vt 0.0001 0.9999
vt 0.0001 0.9971
vn 0.0000 -1.0000 0.0000
vn 0.0000 1.0000 0.0000
vn 1.0000 -0.0000 0.0000
vn 0.0000 -0.0000 1.0000
vn -1.0000 -0.0000 -0.0000
vn 0.0000 0.0000 -1.0000
usemtl Material
s off
f 18/45/13 20/46/13 17/47/13
f 24/48/14 22/49/14 21/50/14
f 21/51/15 18/52/15 17/53/15
f 22/54/16 19/55/16 18/56/16
f 19/57/17 24/58/17 20/59/17
f 17/60/18 24/61/18 21/62/18
f 18/45/13 19/55/13 20/46/13
f 24/48/14 23/63/14 22/49/14
f 21/51/15 22/64/15 18/52/15
f 22/54/16 23/65/16 19/55/16
f 19/57/17 23/63/17 24/58/17
f 17/60/18 20/66/18 24/61/18
o Cube.004
v 7.012594 -1.000088 -3.007422
v 7.012594 -1.000088 -1.007422
v 5.012594 -1.000088 -1.007422
v 5.012595 -1.000088 -3.007422
v 7.012595 0.999912 -3.007421
v 7.012594 0.999912 -1.007421
v 5.012594 0.999912 -1.007422
v 5.012594 0.999912 -3.007422
vt 0.0001 0.9999
vt 0.9999 0.0001
vt 0.9999 0.9999
vt 0.0001 0.9999
vt 0.9999 0.0001
vt 0.9999 0.9999
vt 0.9955 0.9956
vt 0.0001 0.0001
vt 0.9999 0.0001
vt 0.9999 0.9999
vt 0.0001 0.0001
vt 0.9999 0.0001
vt 0.0001 0.9999
vt 0.9999 0.0001
vt 0.9999 0.9999
vt 0.9999 1.0000
vt 0.0001 0.0001
vt 0.9999 0.0001
vt 0.0001 0.0001
vt 0.0001 1.0000
vt 0.0001 0.9999
vt 0.0001 0.9971
vn 0.0000 -1.0000 0.0000
vn 0.0000 1.0000 0.0000
vn 1.0000 0.0000 0.0000
vn 0.0000 -0.0000 1.0000
vn -1.0000 0.0000 -0.0000
vn 0.0000 0.0000 -1.0000
usemtl Material
s off
f 26/67/19 28/68/19 25/69/19
f 32/70/20 30/71/20 29/72/20
f 29/73/21 26/74/21 25/75/21
f 30/76/22 27/77/22 26/78/22
f 27/79/23 32/80/23 28/81/23
f 25/82/24 32/83/24 29/84/24
f 26/67/19 27/77/19 28/68/19
f 32/70/20 31/85/20 30/71/20
f 29/73/21 30/86/21 26/74/21
f 30/76/22 31/87/22 27/77/22
f 27/79/23 31/85/23 32/80/23
f 25/82/24 28/88/24 32/83/24
o Cube.003
v 7.012594 -1.000088 -1.000672
v 7.012594 -1.000088 0.999328
v 5.012594 -1.000088 0.999328
v 5.012595 -1.000088 -1.000672
v 7.012595 0.999912 -1.000672
v 7.012594 0.999912 0.999328
v 5.012594 0.999912 0.999328
v 5.012594 0.999912 -1.000672
vt 0.9999 0.9999
vt 0.0001 0.0001
vt 0.9999 0.0001
vt 0.0001 0.9999
vt 0.9999 0.0001
vt 0.9999 0.9999
vt 0.9955 0.9956
vt 0.0001 0.0001
vt 0.9999 0.0001
vt 0.9999 0.9999
vt 0.9999 0.0001
vt 0.0001 0.0001
vt 0.9999 0.9999
vt 0.0001 0.9999
vt 0.9999 1.0000
vt 0.0001 0.0001
vt 0.9999 0.0001
vt 0.0001 0.9999
vt 0.0001 1.0000
vt 0.0001 0.9999
vt 0.9999 0.0001
vt 0.0001 0.9971
vn 0.0000 -1.0000 0.0000
vn 0.0000 1.0000 0.0000
vn 1.0000 -0.0000 0.0000
vn -0.0000 -0.0000 1.0000
vn -1.0000 0.0000 -0.0000
vn 0.0000 0.0000 -1.0000
usemtl Material
s off
f 33/89/25 35/90/25 36/91/25
f 40/92/26 38/93/26 37/94/26
f 37/95/27 34/96/27 33/97/27
f 38/98/28 35/90/28 34/99/28
f 39/100/29 36/101/29 35/102/29
f 33/103/30 40/104/30 37/105/30
f 33/89/25 34/106/25 35/90/25
f 40/92/26 39/100/26 38/93/26
f 37/95/27 38/107/27 34/96/27
f 38/98/28 39/108/28 35/90/28
f 39/100/29 40/109/29 36/101/29
f 33/103/30 36/110/30 40/104/30
o Cube.002
v 5.007301 -1.000088 -1.000672
v 5.007301 -1.000088 0.999328
v 3.007301 -1.000088 0.999328
v 3.007301 -1.000088 -1.000672
v 5.007301 0.999912 -1.000672
v 5.007300 0.999912 0.999328
v 3.007300 0.999912 0.999328
v 3.007301 0.999912 -1.000672
vt 0.9999 0.9999
vt 0.0001 0.0001
vt 0.9999 0.0001
vt 0.0001 0.9999
vt 0.9999 0.0001
vt 0.9999 0.9999
vt 0.9955 0.9956
vt 0.0001 0.0001
vt 0.9999 0.0001
vt 0.9999 0.9999
vt 0.9999 0.0001
vt 0.0001 0.0001
vt 0.9999 0.9999
vt 0.0001 0.9999
vt 0.9999 1.0000
vt 0.0001 0.0001
vt 0.9999 0.0001
vt 0.0001 0.9999
vt 0.0001 1.0000
vt 0.0001 0.9999
vt 0.9999 0.0001
vt 0.0001 0.9971
vn 0.0000 -1.0000 0.0000
vn 0.0000 1.0000 0.0000
vn 1.0000 -0.0000 0.0000
vn -0.0000 -0.0000 1.0000
vn -1.0000 -0.0000 -0.0000
vn 0.0000 0.0000 -1.0000
usemtl Material
s off
f 41/111/31 43/112/31 44/113/31
f 48/114/32 46/115/32 45/116/32
f 45/117/33 42/118/33 41/119/33
f 46/120/34 43/112/34 42/121/34
f 47/122/35 44/123/35 43/124/35
f 41/125/36 48/126/36 45/127/36
f 41/111/31 42/128/31 43/112/31
f 48/114/32 47/122/32 46/115/32
f 45/117/33 46/129/33 42/118/33
f 46/120/34 47/130/34 43/112/34
f 47/122/35 48/131/35 44/123/35
f 41/125/36 44/132/36 48/126/36
o Cube.001
v 3.002717 -1.000088 -1.000672
v 3.002717 -1.000088 0.999328
v 1.002716 -1.000088 0.999328
v 1.002717 -1.000088 -1.000672
v 3.002717 0.999912 -1.000672
v 3.002716 0.999912 0.999328
v 1.002716 0.999912 0.999328
v 1.002717 0.999912 -1.000672
vt 0.0001 0.9999
vt 0.9999 0.0001
vt 0.9999 0.9999
vt 0.0001 0.9999
vt 0.9999 0.0001
vt 0.9999 0.9999
vt 0.9955 0.9956
vt 0.0001 0.0001
vt 0.9999 0.0001
vt 0.9999 0.9999
vt 0.0001 0.0001
vt 0.9999 0.0001
vt 0.0001 0.0001
vt 0.9999 0.9999
vt 0.0001 0.9999
vt 0.9999 1.0000
vt 0.0001 0.0001
vt 0.9999 0.0001
vt 0.0001 1.0000
vt 0.0001 0.9999
vt 0.9999 0.0001
vt 0.0001 0.9971
vn 0.0000 -1.0000 0.0000
vn 0.0000 1.0000 0.0000
vn 1.0000 -0.0000 0.0000
vn -0.0000 -0.0000 1.0000
vn -1.0000 -0.0000 -0.0000
vn 0.0000 0.0000 -1.0000
usemtl Material
s off
f 50/133/37 52/134/37 49/135/37
f 56/136/38 54/137/38 53/138/38
f 53/139/39 50/140/39 49/141/39
f 54/142/40 51/143/40 50/144/40
f 55/145/41 52/146/41 51/147/41
f 49/148/42 56/149/42 53/150/42
f 50/133/37 51/143/37 52/134/37
f 56/136/38 55/145/38 54/137/38
f 53/139/39 54/151/39 50/140/39
f 54/142/40 55/152/40 51/143/40
f 55/145/41 56/153/41 52/146/41
f 49/148/42 52/154/42 56/149/42
o Cube
v 1.000000 -1.000000 -1.000000
v 1.000000 -1.000000 1.000000
v -1.000000 -1.000000 1.000000
v -1.000000 -1.000000 -1.000000
v 1.000000 1.000000 -0.999999
v 0.999999 1.000000 1.000001
v -1.000000 1.000000 1.000000
v -1.000000 1.000000 -1.000000
vt 0.0001 0.9999
vt 0.9999 0.0001
vt 0.9999 0.9999
vt 0.0001 0.9999
vt 0.9999 0.0001
vt 0.9999 0.9999
vt 0.9955 0.9956
vt 0.0001 0.0001
vt 0.9999 0.0001
vt 0.9999 0.9999
vt 0.0001 0.0001
vt 0.9999 0.0001
vt 0.0001 0.9999
vt 0.9999 0.0001
vt 0.9999 0.9999
vt 0.9999 1.0000
vt 0.0001 0.0001
vt 0.9999 0.0001
vt 0.0001 0.0001
vt 0.0001 1.0000
vt 0.0001 0.9999
vt 0.0001 0.9971
vn 0.0000 -1.0000 0.0000
vn 0.0000 1.0000 0.0000
vn 1.0000 -0.0000 0.0000
vn 0.0000 -0.0000 1.0000
vn -1.0000 -0.0000 -0.0000
vn 0.0000 0.0000 -1.0000
usemtl Material
s off
f 58/155/43 60/156/43 57/157/43
f 64/158/44 62/159/44 61/160/44
f 61/161/45 58/162/45 57/163/45
f 62/164/46 59/165/46 58/166/46
f 59/167/47 64/168/47 60/169/47
f 57/170/48 64/171/48 61/172/48
f 58/155/43 59/165/43 60/156/43
f 64/158/44 63/173/44 62/159/44
f 61/161/45 62/174/45 58/162/45
f 62/164/46 63/175/46 59/165/46
f 59/167/47 63/173/47 64/168/47
f 57/170/48 60/176/48 64/171/48
