# Blender v2.78 (sub 0) OBJ File: 'cube.blend'
# www.blender.org
mtllib cube.mtl
v 1.000000 -1.000000 -1.000000
v 1.000000 -1.000000 1.000000
v -1.000000 -1.000000 1.000000
v -1.000000 -1.000000 -1.000000
v 1.000000 1.000000 -0.999999
v 0.999999 1.000000 1.000001
v -1.000000 1.000000 1.000000
v -1.000000 1.000000 -1.000000
vt 0.0001 0.9999
vt 0.9999 0.0001
vt 0.9999 0.9999
vt 0.0001 0.9999
vt 0.9999 0.0001
vt 0.9999 0.9999
vt 0.9955 0.9956
vt 0.0001 0.0001
vt 0.9999 0.0001
vt 0.9999 0.9999
vt 0.0001 0.0001
vt 0.9999 0.0001
vt 0.0001 0.9999
vt 0.9999 0.0001
vt 0.9999 0.9999
vt 0.9999 1.0000
vt 0.0001 0.0001
vt 0.9999 0.0001
vt 0.0001 0.0001
vt 0.0001 1.0000
vt 0.0001 0.9999
vt 0.0001 0.9971
vn 0.0000 -1.0000 0.0000
vn 0.0000 1.0000 0.0000
vn 1.0000 -0.0000 0.0000
vn 0.0000 -0.0000 1.0000
vn -1.0000 -0.0000 -0.0000
vn 0.0000 0.0000 -1.0000
usemtl Material
s off
f 2/1/1 4/2/1 1/3/1
f 8/4/2 6/5/2 5/6/2
f 5/7/3 2/8/3 1/9/3
f 6/10/4 3/11/4 2/12/4
f 3/13/5 8/14/5 4/15/5
f 1/16/6 8/17/6 5/18/6
f 2/1/1 3/11/1 4/2/1
f 8/4/2 7/19/2 6/5/2
f 5/7/3 6/20/3 2/8/3
f 6/10/4 7/21/4 3/11/4
f 3/13/5 7/19/5 8/14/5
f 1/16/6 4/22/6 8/17/6
